<?xml version="1.0" encoding="utf-8"?>
<!-- Generator: Adobe Illustrator 18.1.1, SVG Export Plug-In . SVG Version: 6.00 Build 0)  -->
<svg version="1.1" id="Layer_2" xmlns="http://www.w3.org/2000/svg" xmlns:xlink="http://www.w3.org/1999/xlink" x="0px" y="0px"
	 viewBox="0 0 612 792" enable-background="new 0 0 612 792" xml:space="preserve">
<g>
	<g>
		<g>
			<path fill="#0C2F56" d="M296.5,332.3H266c-0.8,0-1.4-0.6-1.4-1.4l0,0c0-0.8,0.6-1.4,1.4-1.4h30.5c0.8,0,1.4,0.6,1.4,1.4l0,0
				C297.9,331.6,297.3,332.3,296.5,332.3z"/>
			<path fill="#0C2F56" d="M306.6,350.3h-29.1c-0.8,0-1.4-0.6-1.4-1.4l0,0c0-0.8,0.6-1.4,1.4-1.4h29.1c0.8,0,1.4,0.6,1.4,1.4l0,0
				C308,349.6,307.4,350.3,306.6,350.3z"/>
			<path fill="#0C2F56" d="M337.7,332.3c-0.8,0-1.4,0.6-1.4,1.4V356h-11.7v-9.5c0-0.2-0.1-0.5-0.2-0.6c-0.2-0.5-0.6-0.8-1-0.8h-8.7
				c-0.6,0-1.1,0.6-1.1,1.4c0,0.1,0,0.1,0,0.2c0,0,0,0.1,0,0.1v9.2h-35.1c-0.8,0-1.4,0.6-1.4,1.4c0,0.8,0.6,1.4,1.4,1.4h36.5
				c0.1,0,0.1,0,0.2,0c0,0,0,0,0,0c0.1,0,0.1,0,0.2-0.1c0,0,0,0,0.1,0c0.1,0,0.1,0,0.2-0.1c0,0,0.1,0,0.1-0.1c0,0,0.1,0,0.1-0.1
				c0.1,0,0.1-0.1,0.2-0.1c0,0,0,0,0,0c0.3-0.3,0.4-0.6,0.4-1v-1.4v-8.2h5.3v9.5c0,0.8,0.6,1.4,1.4,1.4c0.1,0,0.1,0,0.2,0
				c0.1,0,0.1,0,0.2,0h13.7c0.1,0,0.2,0,0.2,0c0.1,0,0.2,0,0.2,0c0.8,0,1.4-0.6,1.4-1.4v-23.7C339.1,332.9,338.5,332.3,337.7,332.3z
				"/>
			<path fill="#0C2F56" d="M308.7,341.9h-17.9c-0.8,0-1.4-0.6-1.4-1.4v0c0-0.8,0.6-1.4,1.4-1.4h17.9c0.8,0,1.4,0.6,1.4,1.4v0
				C310.1,341.3,309.4,341.9,308.7,341.9z"/>
			<path fill="#0C2F56" d="M304.9,332.3h-4.4c-0.8,0-1.4-0.6-1.4-1.4l0,0c0-0.8,0.6-1.4,1.4-1.4h4.4c0.8,0,1.4,0.6,1.4,1.4l0,0
				C306.4,331.6,305.7,332.3,304.9,332.3z"/>
			<path fill="#0C2F56" d="M286.7,341.9h-3.6c-0.8,0-1.4-0.6-1.4-1.4v0c0-0.8,0.6-1.4,1.4-1.4h3.6c0.8,0,1.4,0.6,1.4,1.4v0
				C288.1,341.3,287.4,341.9,286.7,341.9z"/>
			<path fill="#0C2F56" d="M273.7,358.9h-4.8c-0.8,0-1.4-0.6-1.4-1.4l0,0c0-0.8,0.6-1.4,1.4-1.4h4.8c0.8,0,1.4,0.6,1.4,1.4l0,0
				C275.1,358.2,274.5,358.9,273.7,358.9z"/>
			<path fill="#0C2F56" d="M346.3,333.3c0,0-12.9-13.1-12.9-13.2v-8.3c0-0.8-0.6-1.4-1.4-1.4h0c-0.8,0-1.4,0.6-1.4,1.4v5.8
				l-10.5-10.5c0-0.1-0.1-0.1-0.1-0.2c-0.3-0.3-0.7-0.4-1-0.4c-0.4,0-0.7,0.1-1,0.4c0,0-0.1,0.1-0.1,0.2L305,319.9h-21.5
				c-0.4,0-0.8,0.2-1,0.4c-0.3,0.3-0.4,0.6-0.4,1c0,0.8,0.6,1.4,1.4,1.4h22.6l12.9-12.7l25.4,25.3c0.6,0.6,1.5,0.6,2,0
				S346.9,333.8,346.3,333.3z"/>
		</g>
		<g id="Shape_1">
			<g>
				<path fill-rule="evenodd" clip-rule="evenodd" fill="#3793D0" d="M321.8,327.4c-1-0.6-2.1-1-3.2-1.4c-0.6-0.3-1.2-0.6-1.7-1
					c-1-0.8-0.8-2.2,0.4-2.7c0.3-0.1,0.7-0.2,1.1-0.2c1.4-0.1,2.7,0.2,4,0.8c0.6,0.3,0.8,0.2,1.1-0.4c0.2-0.7,0.4-1.4,0.6-2.1
					c0.1-0.5,0-0.8-0.5-1c-0.8-0.4-1.6-0.6-2.5-0.8c-1.1-0.2-1.1-0.2-1.1-1.3c0-1.6,0-1.6-1.6-1.6c-0.2,0-0.5,0-0.7,0
					c-0.8,0-0.9,0.2-0.9,0.9c0,0.3,0,0.7,0,1c0,1,0,1-1,1.3c-2.3,0.9-3.8,2.5-4,5c-0.1,2.3,1,3.8,2.9,4.9c1.1,0.7,2.4,1.1,3.6,1.6
					c0.5,0.2,0.9,0.4,1.3,0.8c1.2,1,1,2.6-0.4,3.2c-0.7,0.3-1.5,0.4-2.3,0.3c-1.2-0.2-2.4-0.5-3.6-1.1c-0.7-0.3-0.8-0.3-1.1,0.5
					c-0.2,0.6-0.4,1.2-0.5,1.9c-0.2,0.8-0.1,1,0.7,1.4c1,0.5,2.1,0.7,3.2,0.9c0.9,0.1,0.9,0.2,0.9,1.1c0,0.4,0,0.8,0,1.2
					c0,0.5,0.3,0.8,0.8,0.8c0.6,0,1.2,0,1.8,0c0.5,0,0.7-0.3,0.7-0.8c0-0.6,0-1.1,0-1.7c0-0.6,0.2-0.9,0.8-1c1.3-0.3,2.3-1,3.1-2
					C325.9,333.2,325.1,329.2,321.8,327.4z"/>
			</g>
		</g>
	</g>
	<g>
		<path fill="#0C2F56" d="M216.2,380.4v-5.2h-6.3v5.2h-2.4v-12.8h2.4v5.4h6.3v-5.4h2.4v12.8H216.2z"/>
		<path fill="#0C2F56" d="M233.4,374.1c0,3.3-2.1,6.6-6.6,6.6c-4.5,0-6.6-3.2-6.6-6.6s2.2-6.7,6.6-6.7
			C231.3,367.3,233.4,370.7,233.4,374.1z M222.7,374.1c0.1,2.1,1.2,4.3,4.2,4.3s4.1-2.3,4.2-4.4c0-2.2-1.2-4.6-4.2-4.6
			S222.6,372,222.7,374.1z"/>
		<path fill="#0C2F56" d="M246.4,367.6v7.3c0,3.8-2.3,5.7-5.5,5.7c-3.1,0-5.7-1.9-5.7-5.7v-7.3h2.4v7.3c0,2.3,1.3,3.5,3.3,3.5
			c2,0,3.1-1.3,3.1-3.5v-7.3H246.4z"/>
		<path fill="#0C2F56" d="M256.6,370.7c-0.4-0.7-1.6-1.4-3-1.4c-1.8,0-2.6,0.7-2.6,1.7c0,1.1,1.3,1.4,2.8,1.6c2.7,0.3,5.1,1,5.1,4.1
			c0,2.8-2.5,4.1-5.4,4.1c-2.6,0-4.6-0.8-5.6-3.1l2-1c0.6,1.4,2,2,3.6,2c1.5,0,2.9-0.5,2.9-1.9c0-1.2-1.3-1.7-3-1.9
			c-2.6-0.3-5-1-5-3.9c0-2.6,2.6-3.7,4.9-3.7c2,0,4.1,0.6,5,2.5L256.6,370.7z"/>
		<path fill="#0C2F56" d="M270.3,380.4h-9.6c0-4.3,0-8.5,0-12.8h9.6v2.3h-7.2v2.9h6.9v2.2h-6.9v2.9h7.2V380.4z"/>
		<path fill="#0C2F56" d="M280.5,370.7c-0.4-0.7-1.6-1.4-3-1.4c-1.8,0-2.6,0.7-2.6,1.7c0,1.1,1.3,1.4,2.8,1.6c2.7,0.3,5.1,1,5.1,4.1
			c0,2.8-2.5,4.1-5.4,4.1c-2.6,0-4.6-0.8-5.6-3.1l2-1c0.6,1.4,2,2,3.6,2c1.5,0,2.9-0.5,2.9-1.9c0-1.2-1.3-1.7-3-1.9
			c-2.6-0.3-5-1-5-3.9c0-2.6,2.6-3.7,4.9-3.7c2,0,4.1,0.6,5,2.5L280.5,370.7z"/>
		<path fill="#3793D0" d="M296.2,370.7c-0.4-0.7-1.6-1.4-3-1.4c-1.8,0-2.6,0.7-2.6,1.7c0,1.1,1.3,1.4,2.8,1.6c2.7,0.3,5.1,1,5.1,4.1
			c0,2.8-2.5,4.1-5.4,4.1c-2.6,0-4.6-0.8-5.6-3.1l2-1c0.6,1.4,2,2,3.6,2c1.5,0,2.9-0.5,2.9-1.9c0-1.2-1.3-1.7-3-1.9
			c-2.6-0.3-5-1-5-3.9c0-2.6,2.6-3.7,4.9-3.7c2,0,4.1,0.6,5,2.5L296.2,370.7z"/>
		<path fill="#3793D0" d="M312.9,374.1c0,3.3-2.1,6.6-6.6,6.6s-6.6-3.2-6.6-6.6s2.2-6.7,6.6-6.7C310.8,367.3,313,370.7,312.9,374.1z
			 M302.2,374.1c0.1,2.1,1.2,4.3,4.2,4.3c3,0,4.1-2.3,4.2-4.4c0-2.2-1.2-4.6-4.2-4.6C303.4,369.5,302.1,372,302.2,374.1z"/>
		<path fill="#3793D0" d="M317.1,367.6v10.5h6.6v2.2h-9v-12.8H317.1z"/>
		<path fill="#3793D0" d="M336.6,373.9c0.1,3.2-1.9,6.5-6.4,6.5c-1.6,0-3.4,0-5,0v-12.8c1.6,0,3.4,0,5,0
			C334.6,367.6,336.6,370.7,336.6,373.9z M327.6,378.1h2.6c2.9,0,4.1-2.1,4-4.2c-0.1-2-1.2-4-4-4h-2.6V378.1z"/>
		<path fill="#0C2F56" d="M351.4,380.4h-9.6c0-4.3,0-8.5,0-12.8h9.6v2.3h-7.2v2.9h6.9v2.2h-6.9v2.9h7.2V380.4z"/>
		<path fill="#0C2F56" d="M362.4,378h-6.7l-1.1,2.4H352l5.7-12.8h2.6l5.7,12.8h-2.6L362.4,378z M359,370.3l-2.4,5.4h4.7L359,370.3z"
			/>
		<path fill="#0C2F56" d="M374.9,370.7c-0.4-0.7-1.6-1.4-3-1.4c-1.8,0-2.6,0.7-2.6,1.7c0,1.1,1.3,1.4,2.8,1.6c2.7,0.3,5.1,1,5.1,4.1
			c0,2.8-2.5,4.1-5.4,4.1c-2.6,0-4.6-0.8-5.6-3.1l2-1c0.6,1.4,2,2,3.6,2c1.5,0,2.9-0.5,2.9-1.9c0-1.2-1.3-1.7-3-1.9
			c-2.6-0.3-5-1-5-3.9c0-2.6,2.6-3.7,4.9-3.7c2,0,4.1,0.6,5,2.5L374.9,370.7z"/>
		<path fill="#0C2F56" d="M379,380.4v-12.8h2.4v12.8H379z"/>
		<path fill="#0C2F56" d="M386.1,367.6v10.5h6.6v2.2h-9v-12.8H386.1z"/>
		<path fill="#0C2F56" d="M397.5,372.9l3.4-5.3h2.9v0.1l-5.1,7.4v5.3h-2.4v-5.3l-4.9-7.4v-0.1h2.9L397.5,372.9z"/>
	</g>
</g>
</svg>
